<?xml version="1.0" standalone="no"?>
<!DOCTYPE svg PUBLIC "-//W3C//DTD SVG 20010904//EN"
 "http://www.w3.org/TR/2001/REC-SVG-20010904/DTD/svg10.dtd">
<svg version="1.0" xmlns="http://www.w3.org/2000/svg"
 width="1084.000000pt" height="1084.000000pt" viewBox="0 0 1084.000000 1084.000000"
 preserveAspectRatio="xMidYMid meet">
<metadata>
Created by potrace 1.11, written by Peter Selinger 2001-2013
</metadata>
<g transform="translate(0.000000,1084.000000) scale(0.100000,-0.100000)"
fill="#000000" stroke="none">
<path d="M0 5415 l0 -5415 5415 0 5415 0 0 5415 0 5415 -5415 0 -5415 0 0
-5415z m4705 5277 c218 -49 355 -120 491 -256 70 -69 106 -117 154 -198 34
-60 66 -105 71 -102 5 3 19 24 31 47 136 268 369 446 668 510 127 27 423 30
585 4 706 -111 1266 -553 1525 -1206 23 -57 59 -174 81 -260 68 -262 64 -259
364 -341 420 -114 816 -447 1024 -860 131 -262 193 -545 176 -800 -11 -151 -6
-160 154 -325 76 -77 166 -178 200 -225 328 -442 447 -987 336 -1535 -95 -468
-380 -901 -775 -1175 -51 -36 -109 -79 -129 -96 l-35 -32 -1 -253 c-1 -221 -4
-268 -23 -360 -67 -322 -219 -612 -441 -842 -200 -207 -402 -335 -703 -447
-65 -24 -95 -55 -104 -109 -44 -260 -95 -431 -183 -616 -101 -212 -197 -350
-350 -509 -279 -287 -607 -467 -1008 -553 -116 -25 -148 -27 -338 -27 -231 0
-381 17 -515 60 -212 68 -387 228 -505 463 l-37 75 -42 -80 c-105 -200 -241
-337 -421 -424 -254 -123 -669 -145 -1024 -55 -328 83 -658 278 -921 544 -153
155 -238 272 -334 462 -93 185 -150 357 -186 559 -22 121 -42 138 -192 170
-148 30 -254 67 -393 136 -177 88 -296 174 -450 329 -154 154 -240 272 -330
450 -119 239 -154 386 -161 680 -3 110 -10 220 -16 244 -9 36 -31 64 -122 155
-352 355 -535 718 -587 1166 -19 168 -7 486 25 636 101 480 358 853 818 1192
54 39 104 85 113 101 12 25 14 59 8 213 -7 210 4 322 47 494 134 532 566 1002
1085 1180 126 43 123 38 170 264 92 439 299 813 597 1078 259 230 668 424
1028 488 115 20 458 12 575 -14z"/>
<path d="M4139 10375 c-348 -55 -635 -200 -884 -450 -71 -71 -146 -157 -182
-210 -321 -475 -360 -1064 -102 -1523 66 -116 198 -244 314 -304 50 -26 124
-56 165 -67 103 -29 125 -20 194 72 49 68 79 92 202 170 74 46 74 43 74 501 0
433 3 461 48 485 37 20 98 13 129 -13 l28 -24 5 -439 c4 -366 7 -442 20 -461
8 -13 51 -45 96 -72 178 -108 254 -234 254 -420 0 -191 -81 -322 -259 -415
-52 -27 -81 -50 -100 -79 l-26 -39 -3 -294 -3 -293 200 0 c125 0 209 -4 224
-11 51 -23 52 -33 54 -494 2 -236 3 -440 3 -452 0 -33 45 -79 113 -115 95 -51
171 -127 214 -216 38 -75 38 -77 38 -196 0 -119 -1 -122 -37 -199 -105 -219
-342 -333 -555 -269 -129 40 -227 121 -291 240 -17 31 -45 71 -62 87 l-31 30
-503 5 c-462 5 -504 6 -529 23 -16 10 -32 29 -37 43 -6 14 -10 126 -10 250 0
265 -2 273 -87 335 -32 23 -98 80 -147 126 -127 121 -142 129 -276 152 -469
81 -799 309 -1015 701 -25 47 -50 89 -54 93 -13 13 -58 -14 -168 -97 -362
-274 -577 -693 -600 -1167 -20 -443 138 -877 420 -1146 36 -35 70 -63 76 -63
5 0 28 38 50 86 51 108 149 257 234 355 60 68 166 161 287 251 25 19 51 46 58
61 7 15 31 116 52 225 60 311 72 347 130 396 27 22 41 26 93 26 44 0 71 -6 94
-20 77 -47 86 -118 33 -275 -31 -90 -34 -111 -35 -215 0 -105 2 -120 27 -173
34 -72 131 -171 213 -217 114 -64 146 -90 167 -137 46 -104 -30 -223 -144
-223 -60 0 -133 38 -330 170 -81 55 -154 100 -161 100 -26 0 -153 -98 -227
-176 -213 -224 -323 -550 -307 -908 17 -368 142 -651 402 -912 220 -221 441
-335 682 -351 l92 -6 6 39 c60 361 176 605 390 819 89 89 266 218 358 261 33
16 37 21 32 44 -49 188 -57 243 -62 392 -6 176 9 301 54 443 32 100 54 132
111 157 79 35 168 4 207 -73 20 -39 19 -115 -4 -190 -46 -154 -56 -324 -26
-460 34 -151 141 -327 260 -423 69 -57 201 -134 257 -151 61 -18 95 -8 156 45
26 23 74 56 107 74 57 30 65 31 176 31 l116 0 85 -42 c137 -68 247 -200 277
-334 45 -194 -58 -407 -250 -516 -100 -57 -93 -28 -99 -412 -5 -361 -7 -372
-58 -393 -15 -6 -128 -12 -261 -14 -200 -3 -236 -6 -252 -20 -16 -14 -18 -38
-21 -234 -3 -203 -4 -221 -24 -246 -39 -53 -133 -51 -170 4 -17 24 -19 53 -22
292 -4 308 -1 340 38 383 l28 32 261 3 261 3 2 222 c3 273 2 285 -17 314 -9
12 -48 39 -87 59 -105 53 -184 136 -237 249 -24 50 -48 101 -54 114 -16 33
-88 85 -247 176 -74 43 -171 103 -215 133 -74 51 -82 54 -128 49 -97 -9 -346
-208 -446 -356 -60 -88 -115 -209 -142 -316 -22 -81 -24 -112 -24 -300 0 -225
7 -287 55 -470 168 -641 680 -1077 1355 -1155 341 -39 614 28 775 190 128 129
183 285 242 694 l22 151 4 3825 c2 2700 0 3868 -8 3972 -17 233 -76 560 -124
694 -103 284 -350 416 -771 413 -66 -1 -159 -7 -206 -14z"/>
<path d="M6244 10380 c-80 -15 -204 -57 -259 -89 -157 -91 -270 -262 -325
-493 -51 -220 -61 -337 -71 -863 -14 -708 -5 -7356 10 -7490 16 -140 58 -392
82 -482 65 -256 224 -425 460 -490 94 -26 482 -26 624 1 322 60 575 194 811
430 188 188 303 370 379 600 60 181 70 248 69 476 0 195 -2 210 -31 320 -60
227 -129 364 -246 486 -110 117 -236 191 -388 229 -82 21 -108 11 -152 -52
-57 -83 -101 -126 -152 -148 -59 -27 -96 -59 -122 -106 -16 -30 -18 -54 -15
-212 2 -98 7 -189 12 -202 16 -42 53 -57 163 -65 56 -4 115 -14 130 -21 56
-26 57 -35 57 -429 0 -392 -2 -404 -55 -428 -19 -9 -160 -12 -526 -12 l-501 0
-29 29 c-49 50 -36 136 26 166 28 13 91 15 417 15 210 0 400 3 421 7 l39 6 -4
186 c-4 190 -12 232 -47 247 -9 3 -66 10 -127 14 -115 8 -165 24 -180 57 -4
10 -11 158 -14 328 -3 207 -9 317 -17 330 -6 11 -46 38 -88 60 -184 94 -296
299 -266 485 6 36 26 97 46 136 43 89 143 186 243 239 112 58 104 31 106 364
0 159 -3 293 -7 298 -5 4 -96 10 -202 13 -176 5 -196 7 -222 26 -15 11 -31 32
-34 45 -4 13 -7 376 -8 806 -1 526 -4 791 -12 810 -16 43 -58 82 -124 115
-167 85 -277 295 -246 471 35 200 219 385 415 417 167 27 353 -58 434 -200 47
-81 82 -118 139 -147 55 -26 60 -27 212 -25 183 3 189 6 221 109 81 264 27
547 -145 755 -113 138 -345 281 -427 263 -15 -4 -51 -26 -79 -50 -151 -129
-313 -152 -488 -70 -102 49 -198 145 -249 251 -36 76 -37 83 -37 185 0 102 1
107 39 185 48 96 133 185 226 235 102 55 100 46 100 417 0 346 2 360 61 381
20 7 118 11 256 11 l224 0 24 25 25 24 0 216 0 217 29 29 c23 23 38 29 71 29
52 0 76 -13 95 -50 12 -24 15 -80 15 -318 0 -303 -5 -342 -44 -365 -14 -8
-102 -14 -281 -17 l-260 -5 -3 -242 c-3 -295 -3 -293 93 -343 122 -62 212
-164 269 -303 34 -83 48 -100 143 -163 163 -107 397 -244 436 -255 47 -13 63
-8 158 48 354 209 545 613 500 1059 -77 767 -547 1310 -1267 1465 -77 17 -142
22 -289 25 -104 1 -213 -1 -241 -6z"/>
<path d="M8365 8573 c-4 -21 -13 -74 -22 -118 -77 -405 -326 -741 -699 -946
l-71 -39 23 -68 c56 -167 71 -428 35 -632 -11 -64 -15 -109 -9 -115 5 -5 62
-12 126 -15 127 -6 159 -18 181 -67 9 -19 12 -178 10 -623 -1 -413 2 -604 10
-618 6 -11 46 -45 90 -75 43 -31 113 -94 156 -140 87 -96 115 -111 230 -127
320 -45 588 -172 791 -376 90 -91 189 -226 244 -333 50 -99 46 -97 115 -56
158 95 335 263 436 415 140 209 228 457 259 725 41 360 -55 756 -255 1055 -46
68 -218 260 -234 260 -4 0 -19 -29 -35 -65 -70 -160 -207 -356 -339 -483 -77
-73 -72 -54 -87 -337 -12 -213 -24 -304 -45 -345 -51 -100 -219 -100 -277 -2
-21 34 -23 121 -7 192 6 25 16 89 23 142 22 166 -5 271 -92 355 -61 60 -147
97 -290 127 -135 29 -153 36 -195 74 -79 75 -42 215 68 257 38 15 56 16 134 7
100 -12 151 -30 385 -139 l159 -74 59 58 c154 150 261 385 299 652 18 128 6
371 -24 501 -63 269 -186 482 -389 676 -52 49 -129 113 -171 142 -159 110
-383 192 -523 192 l-63 0 -6 -37z"/>
<path d="M2400 8551 c-228 -73 -494 -275 -637 -482 -106 -155 -187 -349 -220
-533 -33 -181 -19 -440 34 -626 86 -301 309 -549 597 -666 92 -36 271 -84 319
-84 46 0 81 25 132 95 84 114 191 183 318 206 142 26 280 -23 397 -141 112
-111 157 -226 147 -376 -9 -147 -80 -260 -216 -345 -83 -52 -138 -104 -151
-143 -5 -17 -8 -91 -7 -164 3 -109 7 -136 21 -150 15 -16 51 -17 424 -14 328
3 412 7 434 18 15 8 48 45 73 82 55 84 143 169 218 212 32 18 64 42 72 53 13
18 15 83 15 409 l0 388 -190 0 c-213 0 -249 8 -268 56 -7 19 -12 150 -15 384
-2 256 -6 363 -15 385 -14 33 -228 247 -313 312 -42 32 -68 44 -119 53 -169
30 -337 104 -475 207 -204 153 -349 390 -449 731 -27 96 -47 148 -57 149 -8 1
-39 -6 -69 -16z"/>
<path d="M6250 8208 c-50 -34 -61 -62 -58 -140 3 -58 7 -71 33 -98 34 -36 94
-54 144 -45 93 17 126 65 119 172 -3 55 -8 68 -36 95 -28 29 -39 33 -99 36
-59 3 -73 0 -103 -20z"/>
<path d="M3950 7763 c-50 -20 -71 -62 -71 -144 -1 -75 19 -112 71 -133 77 -31
177 -9 205 44 36 70 27 166 -21 210 -21 21 -37 25 -97 27 -40 1 -79 0 -87 -4z"/>
<path d="M6292 6680 c-48 -11 -79 -45 -92 -101 -20 -81 9 -161 65 -185 45 -18
128 -18 165 1 53 27 79 111 59 188 -13 54 -40 81 -94 96 -45 12 -56 12 -103 1z"/>
<path d="M6787 6353 c-33 -38 -118 -125 -189 -194 -101 -101 -128 -133 -129
-155 -1 -16 -2 -351 -3 -746 l-1 -716 195 -4 c141 -3 203 -8 223 -18 56 -27
57 -37 57 -424 0 -211 4 -365 10 -381 13 -34 87 -112 227 -241 104 -95 117
-103 170 -114 524 -104 817 -411 978 -1023 10 -38 25 -71 32 -74 20 -8 156 42
255 94 336 176 568 487 659 882 29 124 37 412 15 537 -60 345 -244 612 -523
761 -156 83 -418 152 -476 126 -14 -7 -50 -45 -80 -86 -65 -87 -122 -136 -203
-174 -54 -26 -69 -28 -179 -28 -117 0 -122 1 -195 36 -259 125 -362 411 -234
650 39 73 125 158 206 203 37 20 79 51 93 68 l25 30 -2 526 -3 527 -433 3
-433 2 -62 -67z"/>
<path d="M2941 6127 c-55 -19 -76 -57 -76 -136 0 -113 38 -153 145 -153 106 0
150 44 150 150 0 98 -52 151 -150 151 -19 0 -50 -5 -69 -12z"/>
<path d="M4403 5145 c-43 -18 -67 -67 -67 -135 0 -101 50 -152 149 -154 61 0
113 27 134 69 37 76 19 174 -38 212 -40 27 -126 31 -178 8z"/>
<path d="M7769 4991 c-73 -24 -102 -65 -102 -146 0 -92 42 -141 128 -151 111
-13 175 41 175 148 0 70 -19 112 -60 133 -37 19 -107 27 -141 16z"/>
<path d="M6721 3342 c-51 -27 -73 -74 -68 -145 6 -102 51 -140 164 -135 60 3
76 7 97 28 70 65 52 222 -29 256 -48 20 -123 18 -164 -4z"/>
<path d="M4439 2901 c-47 -15 -66 -30 -83 -65 -31 -66 -15 -167 33 -211 34
-30 145 -33 189 -5 83 51 83 223 1 266 -36 18 -106 26 -140 15z"/>
</g>
</svg>
